<?xml version="1.0" encoding="UTF-8"?>
<svg width="66px" height="67px" viewBox="0 0 66 67" version="1.1" xmlns="http://www.w3.org/2000/svg" xmlns:xlink="http://www.w3.org/1999/xlink">
    <!-- Generator: Sketch 56 (81588) - https://sketch.com -->
    <title>icon_activity_decoration</title>
    <desc>Created with Sketch.</desc>
    <defs>
        <linearGradient x1="50%" y1="0%" x2="50%" y2="100%" id="linearGradient-1">
            <stop stop-color="#FE876C" offset="0%"></stop>
            <stop stop-color="#FF5867" offset="100%"></stop>
        </linearGradient>
    </defs>
    <g id="运营（二期）" stroke="none" stroke-width="1" fill="none" fill-rule="evenodd">
        <g id="限时折扣（活动级海报）" transform="translate(-538.000000, -360.000000)">
            <g id="分组" transform="translate(340.000000, 94.000000)">
                <g id="编组-6-copy" transform="translate(110.000000, 135.000000)">
                    <g id="icon_activity_decoration" transform="translate(88.000000, 131.000000)">
                        <g id="购物" transform="translate(0.000000, 14.756224)">
                            <path d="M43.2300341,4.62769231 C45.3051194,4.62769231 47.2709897,5.31692306 48.8,6.4 C47.9262799,2.65846153 44.2129693,0 39.9535836,0 L25.4279863,0 C21.3870307,0 17.8921502,2.36307692 16.8,5.80923077 C18.1105802,5.02153845 19.7488055,4.62769231 21.3870307,4.62769231 L43.2300341,4.62769231 Z" id="路径-2" fill="#C24246" fill-rule="nonzero"></path>
                            <ellipse id="椭圆形" fill="#FFCEC4" opacity="0.9164109" cx="32.6" cy="46.2" rx="32.6" ry="5.4"></ellipse>
                            <path d="M43.3289617,4.4 L21.4710383,4.4 C16.4437159,4.4 12.4,8.02309467 12.4,12.5274827 L12.4,38.6725173 C12.4,43.1769053 16.4437158,46.8 21.4710383,46.8 L43.3289617,46.8 C48.3562841,46.8 52.4,43.1769053 52.4,38.6725173 L52.4,12.5274827 C52.4,10.0794457 51.0885246,7.72933024 48.9027322,6.16258661 C47.263388,4.98752887 45.2961748,4.4 43.3289617,4.4 Z" id="路径" fill="url(#linearGradient-1)" fill-rule="nonzero"></path>
                            <path d="M41.856353,11.2 C40.8755515,11.2 40.003728,11.8794118 40.003728,12.85 C40.003728,13.4323529 40.3306618,13.917647 40.8755515,14.2088235 L40.8755515,17.1205882 C40.8755515,20.2264706 38.151103,22.75 34.6638089,22.75 L31.0675368,22.75 C27.5802427,22.75 24.6378383,20.2264706 24.6378383,17.1205882 L24.6378383,14.3058823 C25.5096619,13.917647 25.9455736,12.9470588 25.4006839,12.1705882 C24.9647722,11.3941176 23.8749927,11.0058823 23.0031692,11.4911765 C22.1313457,11.8794118 21.6954339,12.85 22.2403236,13.6264706 C22.3493016,13.917647 22.5672575,14.1117647 22.8941913,14.2088235 L22.8941913,17.1205882 C22.8941913,21.1 26.7084192,24.4 31.1765148,24.4 L34.554831,24.4 C39.0229265,24.4 42.7281765,21.1 42.7281765,17.1205882 L42.7281765,14.2088235 C43.2730662,13.917647 43.6,13.4323529 43.6,12.85 C43.6,11.9764706 42.8371544,11.2 41.856353,11.2 Z" id="路径" fill="#FFFFFF" fill-rule="nonzero"></path>
                        </g>
                        <g id="折扣-(2)" transform="translate(29.858931, 8.535242) rotate(-28.000000) translate(-29.858931, -8.535242) translate(24.358931, 2.035242)" fill-rule="nonzero">
                            <path d="M2.38699645,4.03410677 C2.59442204,4.42421756 3.07882098,4.57231318 3.46893177,4.36488759 C3.85904257,4.157462 4.00713818,3.67306306 3.7997126,3.28295227 C3.59228701,2.89284147 3.10788807,2.74474585 2.71777727,2.95217144 C2.32766648,3.15959703 2.17957086,3.64399597 2.38699645,4.03410677 Z" id="路径" fill="#F4C784" transform="translate(3.093355, 3.658530) rotate(28.000000) translate(-3.093355, -3.658530) "></path>
                            <path d="M7.09891792,8.80461995 C7.30634351,9.19473075 7.79074245,9.34282637 8.18085324,9.13540078 C8.57096403,8.92797519 8.71905965,8.44357625 8.51163407,8.05346545 C8.30420848,7.66335466 7.81980953,7.51525904 7.42969874,7.72268463 C7.03958795,7.93011022 6.89149233,8.41450916 7.09891792,8.80461995 Z" id="路径" fill="#F4C784" transform="translate(7.805276, 8.429043) rotate(28.000000) translate(-7.805276, -8.429043) "></path>
                            <path d="M10.8263444,0.93644538 C10.8259289,0.579751154 10.538289,0.29085946 10.1834823,0.29085946 L0.680978222,0.29085946 C0.325894562,0.29085946 0.0381161508,0.580168829 0.0381161508,0.937141505 L0.0381161508,12.0346201 C0.0381161508,12.4758238 0.468121909,12.78727 0.884417339,12.6477666 L5.21785057,11.1948154 C5.34980307,11.1505658 5.49246937,11.150517 5.62445183,11.1946762 L9.99209164,12.6572339 C10.408664,12.7967372 10.8385313,12.4847342 10.8381162,12.0433912 L10.8263444,0.93644538 Z M3.00951826,1.72543296 C3.93461922,1.72543296 4.68467113,2.55423887 4.68467113,3.57670663 C4.68467113,4.59917438 3.93461922,5.42798029 3.00951826,5.42798029 C2.08441731,5.42798029 1.33422691,4.59903516 1.33422691,3.57670663 C1.33422691,2.55437809 2.08427882,1.72543296 3.00951826,1.72543296 Z M2.80330938,9.32391102 C2.58796028,9.54040576 2.2389701,9.54040576 2.02375949,9.32391102 C1.80841039,9.10741628 1.80841039,8.7565695 2.02375949,8.54021399 L7.96517883,2.56718678 C8.18052793,2.35069204 8.52951811,2.35069204 8.74472872,2.56718678 C8.96007782,2.78368152 8.96007782,3.1345283 8.74472872,3.35088382 L2.80330938,9.32391102 L2.80330938,9.32391102 Z M7.84330924,10.1322509 C6.91820828,10.1322509 6.16815637,9.30344496 6.16815637,8.2809772 C6.16815637,7.25850944 6.9180698,6.42984276 7.84330924,6.42984276 C8.76854868,6.42984276 9.51846211,7.25864867 9.51846211,8.28111643 C9.51846211,9.30358419 8.76841019,10.1322509 7.84330924,10.1322509 L7.84330924,10.1322509 Z" id="形状" fill="#F7D6A3"></path>
                        </g>
                        <path d="M10.9773659,14.1029264 C13.4761838,15.6666503 14.8005123,16.7302926 14.9503514,17.2938533 C15.1751102,18.1391943 13.36231,20.1517469 12.3486729,18.9070511 C10.4663938,16.5957059 8.59804175,15.7529988 7.44621831,15.7529988 C7.04418893,15.7060549 8.22123813,15.1560307 10.9773659,14.1029264 Z" id="路径-7" fill="#FF7B70" transform="translate(11.169452, 16.702926) rotate(-16.000000) translate(-11.169452, -16.702926) "></path>
                        <path d="M43.4317976,10.0108057 C44.2741407,9.89415556 45.242643,10.6435128 46.3373044,12.2588774 C47.4319659,13.8742419 47.8062932,14.9868131 47.4602863,15.5965909 L45.7847654,16.125508 C45.4712308,14.9654974 45.0673673,14.0931878 44.5731749,13.5085791 C43.1966345,11.8801903 41.6917604,11.1733146 40.8494138,11.1733146 C40.5554034,11.1402417 41.416198,10.7527387 43.4317976,10.0108057 Z" id="路径-7-copy" fill="#B1DAFE" transform="translate(44.189105, 13.062265) scale(-1, 1) rotate(-8.000000) translate(-44.189105, -13.062265) "></path>
                        <circle id="椭圆形" stroke="#F7D6A3" stroke-width="0.8" cx="15.4" cy="4.95622401" r="2.2"></circle>
                        <circle id="椭圆形-copy-4" fill="#FFB29F" cx="53.8" cy="20.156224" r="1"></circle>
                    </g>
                </g>
            </g>
        </g>
    </g>
</svg>